<svg width="60" height="60" viewBox="0 0 60 60" fill="none" xmlns="http://www.w3.org/2000/svg">
<g clip-path="url(#clip0)">
<path d="M2.29485 41.5075C2.10547 41.0619 1.92723 40.6052 1.76013 40.1484C1.92723 40.6052 2.10547 41.0619 2.29485 41.5075Z" fill="white"/>
<path d="M3.00779 43.0895C2.76271 42.5994 2.53991 42.1092 2.32825 41.6079C2.53991 42.1092 2.76271 42.5994 3.00779 43.0895Z" fill="white"/>
<path d="M1.61524 39.7029C1.4927 39.3575 1.3813 39.001 1.2699 38.5889C1.3813 38.9899 1.4927 39.3575 1.61524 39.7029Z" fill="white"/>
<path d="M1.11401 38.0877C1.02489 37.7647 0.935768 37.4416 0.857788 37.1074C0.935768 37.4416 1.02489 37.7647 1.11401 38.0877Z" fill="white"/>
<path d="M0.712971 36.5058L0.512451 35.5366L0.712971 36.5058Z" fill="white"/>
<path d="M5.414 47.178C5.18006 46.8549 4.96841 46.5207 4.74561 46.1865C4.96841 46.5207 5.18006 46.8549 5.414 47.178Z" fill="white"/>
<path d="M6.37205 48.4702C6.12697 48.1582 5.88189 47.8352 5.64795 47.501C5.88189 47.8352 6.12697 48.1582 6.37205 48.4702Z" fill="white"/>
<path d="M7.44149 49.7623C7.15185 49.4281 6.86221 49.0939 6.59485 48.7485C6.86221 49.0939 7.15185 49.4281 7.44149 49.7623Z" fill="white"/>
<path d="M4.53403 45.8523C4.31123 45.4958 4.09957 45.1245 3.89905 44.7383C4.09957 45.1245 4.31123 45.4958 4.53403 45.8523Z" fill="white"/>
<path d="M3.73194 44.4931C3.48686 44.0587 3.26406 43.6131 3.04126 43.1675C3.26406 43.6131 3.48686 44.0587 3.73194 44.4931Z" fill="white"/>
<path d="M59.7438 33.8879C59.7438 34.211 59.6547 34.5452 59.599 34.8683C59.6547 34.5341 59.6993 34.211 59.7438 33.8879Z" fill="white"/>
<path d="M59.4876 35.5032C59.4876 35.8151 59.3651 36.1382 59.2982 36.4501C59.3651 36.1382 59.4319 35.8151 59.4876 35.5032Z" fill="white"/>
<path d="M59.1534 37.074C59.0754 37.3859 58.9974 37.6978 58.9083 37.9986C59.042 37.6978 59.042 37.3859 59.1534 37.074Z" fill="white"/>
<path d="M59.9109 32.1724C59.9109 32.54 59.8552 32.9076 59.8218 33.2864C59.8552 32.9076 59.8886 32.54 59.9109 32.1724Z" fill="white"/>
<path d="M0.401046 34.9016C0.401046 34.5786 0.300786 34.2444 0.256226 33.9102C0.300786 34.2444 0.356486 34.534 0.401046 34.9016Z" fill="white"/>
<path d="M0.178231 33.2864C0.178231 32.9299 0.111391 32.5623 0.0891113 32.1724C0.111391 32.5623 0.144811 32.9299 0.178231 33.2864Z" fill="white"/>
<path d="M14.4819 4.34449C15.3042 3.84062 16.152 3.37955 17.0219 2.96313C16.152 3.37955 15.3042 3.84062 14.4819 4.34449Z" fill="white"/>
<path d="M60 30C60 30.557 60 31.114 60 31.6376C59.9777 31.1029 60 30.557 60 30Z" fill="white"/>
<path d="M41.9533 57.5159C41.3851 57.7609 40.8393 57.9949 40.2266 58.2065C40.8058 57.9949 41.3851 57.7609 41.9533 57.5159Z" fill="white"/>
<path d="M31.8938 59.9331C31.2811 59.9331 30.6684 60 30.0557 60C30.6684 60 31.2811 59.9665 31.8938 59.9331Z" fill="white"/>
<path d="M38.0096 58.9082C37.5194 59.0419 37.0181 59.1644 36.5168 59.2758C37.0181 59.1644 37.5194 59.0419 38.0096 58.9082Z" fill="white"/>
<path d="M40.1039 58.251C39.5692 58.4404 38.9899 58.6186 38.4886 58.7746C38.9899 58.6186 39.5581 58.4404 40.1039 58.251Z" fill="white"/>
<path d="M33.899 59.7327C33.42 59.7995 32.941 59.8552 32.4508 59.8886C32.941 59.8552 33.42 59.7995 33.899 59.7327Z" fill="white"/>
<path d="M36.1827 59.354C35.5811 59.4877 34.9684 59.5879 34.3557 59.6771C34.9684 59.5879 35.5811 59.4877 36.1827 59.354Z" fill="white"/>
<path d="M58.7412 38.6113L58.4404 39.5582L58.7412 38.6113Z" fill="white"/>
<path d="M51.3999 51.01C51.1214 51.2885 50.8429 51.567 50.5532 51.8344C50.8429 51.567 51.1214 51.244 51.3999 51.01Z" fill="white"/>
<path d="M45.6739 55.5996C45.1503 55.9338 44.5599 56.2346 44.0475 56.5242C44.5599 56.2346 45.1058 55.9338 45.6739 55.5996Z" fill="white"/>
<path d="M43.6799 56.6914C43.2232 56.9253 42.7665 57.1481 42.2986 57.3598C42.7665 57.1481 43.2232 56.9253 43.6799 56.6914Z" fill="white"/>
<path d="M14.3928 55.6219C13.8692 55.2988 13.3568 54.9535 12.8444 54.6082C13.3679 54.9535 13.8692 55.2988 14.3928 55.6219Z" fill="white"/>
<path d="M17.7015 57.3599C17.2559 57.1594 16.8214 56.9477 16.3981 56.7361C16.8214 56.9477 17.2559 57.1594 17.7015 57.3599Z" fill="white"/>
<path d="M15.9859 56.5243C15.4512 56.2458 14.9276 55.945 14.4041 55.6331C14.9276 55.945 15.4512 56.2458 15.9859 56.5243Z" fill="white"/>
<path d="M29.9443 60C29.3316 60 28.7189 59.9999 28.1062 59.9331C28.7189 59.9665 29.3316 60 29.9443 60Z" fill="white"/>
<path d="M12.5548 54.3965C12.0535 54.04 11.5745 53.6724 11.0955 53.2825C11.5745 53.6724 12.0535 54.04 12.5548 54.3965Z" fill="white"/>
<path d="M19.7734 58.2065C19.2053 58.006 18.6594 57.772 18.0913 57.5381C18.6483 57.772 19.2053 58.006 19.7734 58.2065Z" fill="white"/>
<path d="M27.5381 59.8887C27.0702 59.8887 26.5912 59.7996 26.1233 59.7439C26.5912 59.7996 27.0702 59.8553 27.5381 59.8887Z" fill="white"/>
<path d="M25.6219 59.6769C25.0092 59.5878 24.4077 59.4875 23.8173 59.365C24.43 59.4875 25.0315 59.5878 25.6219 59.6769Z" fill="white"/>
<path d="M21.5224 58.7747C21.01 58.6298 20.5198 58.4628 20.0297 58.2957C20.5198 58.4628 21.01 58.6298 21.5224 58.7747Z" fill="white"/>
<path d="M23.4831 59.2759C22.993 59.1757 22.5028 59.0531 22.0238 58.9194C22.5028 59.042 22.993 59.1757 23.4831 59.2759Z" fill="white"/>
<path d="M9.82544 7.79788C11.2621 6.49863 12.8216 5.34207 14.482 4.34448C12.8216 5.34207 11.2621 6.49863 9.82544 7.79788Z" fill="white"/>
<path d="M54.3966 47.4453L53.7839 48.2808L54.3966 47.4453Z" fill="white"/>
<path d="M53.472 48.6929L52.8147 49.495L53.472 48.6929Z" fill="white"/>
<path d="M56.179 44.6379C55.9785 45.0056 55.7669 45.362 55.5441 45.7519C55.7669 45.362 55.9785 45.0056 56.179 44.6379Z" fill="white"/>
<path d="M60 30C60 22.0435 56.8393 14.4129 51.2132 8.7868C45.5871 3.16071 37.9565 0 30 0C37.9565 0 45.5871 3.16071 51.2132 8.7868C56.8393 14.4129 60 22.0435 60 30Z" fill="white"/>
<path d="M55.2989 46.1196C55.0984 46.4204 54.909 46.7212 54.6974 47.022C54.909 46.7212 55.0984 46.4204 55.2989 46.1196Z" fill="white"/>
<path d="M49.1385 30.8354H22.8481V55.5662H27.0145V48.2361H37.7089V55.5997H45.674C47.338 54.5819 48.8976 53.4028 50.3305 52.0794C49.9517 52.4359 49.5618 52.7701 49.2165 53.0932L49.1385 30.8354ZM30.5682 45.4177H26.8474V41.6969H30.5682V45.4177ZM30.5682 38.9119H26.8474V35.18H30.5682V38.9119ZM37.954 45.4177H34.2332V41.6969H37.954V45.4177ZM37.954 38.9119H34.2332V35.18H37.954V38.9119ZM45.2729 51.9792H41.5522V48.2584H45.2729V51.9792ZM45.2729 45.4177H41.5522V41.6969H45.2729V45.4177ZM45.2729 38.9119H41.5522V35.18H45.2729V38.9119Z" fill="white"/>
<path d="M57.0591 42.967C56.8252 43.4461 56.5801 43.9139 56.3239 44.3818C56.5801 43.9139 56.814 43.4461 57.0591 42.967Z" fill="white"/>
<path d="M58.251 40.104C58.1284 40.4605 57.9948 40.7947 57.8611 41.14C57.9948 40.7835 58.1284 40.4493 58.251 40.104Z" fill="white"/>
<path d="M7.59753 49.9517C8.67345 51.1524 9.83908 52.2696 11.0844 53.2937C9.83908 52.2696 8.67345 51.1524 7.59753 49.9517Z" fill="white"/>
<path d="M9.8255 7.7981C6.72614 10.6059 4.25026 14.0326 2.55781 17.8569C0.865369 21.6812 -0.00598969 25.818 3.09883e-05 30.0001C-0.00598969 25.818 0.865369 21.6812 2.55781 17.8569C4.25026 14.0326 6.72614 10.6059 9.8255 7.7981Z" fill="white"/>
<path d="M51.723 50.6757L52.4583 49.8848L51.723 50.6757Z" fill="white"/>
<path d="M57.6941 41.5522C57.4935 42.0313 57.2819 42.4991 57.0591 42.967C57.2819 42.4991 57.4935 42.0313 57.6941 41.5522Z" fill="white"/>
<path d="M15.4289 14.8608H15.4177V16.5875H15.4289V14.8608Z" fill="#951B81"/>
<path d="M11.0842 53.2825L11.0954 53.2936L11.0842 53.2825Z" fill="white"/>
<path d="M14.3928 55.6221L14.404 55.6332L14.3928 55.6221Z" fill="white"/>
<path d="M12.8444 54.5859L12.5548 54.3743L12.8444 54.5859Z" fill="white"/>
<path d="M20.4196 55.6331V28.4404H30.4456V18.7263H11.14V53.2603C11.619 53.6391 12.0981 54.0067 12.5994 54.3743L12.889 54.586C13.4014 54.9313 13.9139 55.2766 14.4375 55.5997H20.4642L20.4196 55.6331Z" fill="white"/>
<path d="M50.5533 51.8345L50.2971 52.0796L50.5533 51.8345Z" fill="#951B81"/>
<path d="M16.398 56.7361L15.9858 56.5244L16.398 56.7361Z" fill="#951B81"/>
<path d="M18.0913 57.5381L17.7014 57.3599L18.0913 57.5381Z" fill="#951B81"/>
<path d="M20.052 58.2957L19.7958 58.2065L20.052 58.2957Z" fill="#951B81"/>
<path d="M51.723 50.6758L51.3999 51.01L51.723 50.6758Z" fill="#951B81"/>
<path d="M7.59748 49.9517C7.54178 49.8849 7.49722 49.818 7.44152 49.7623C7.38582 49.7066 7.54178 49.8849 7.59748 49.9517Z" fill="#951B81"/>
<path d="M58.4404 39.5581L58.251 40.0928L58.4404 39.5581Z" fill="#951B81"/>
<path d="M6.59487 48.7487L6.37207 48.4702L6.59487 48.7487Z" fill="#951B81"/>
<path d="M36.5169 59.2759L36.1827 59.3539L36.5169 59.2759Z" fill="#951B81"/>
<path d="M22.0238 58.9195L21.5225 58.7747L22.0238 58.9195Z" fill="#951B81"/>
<path d="M44.003 56.5244L43.6799 56.6915L44.003 56.5244Z" fill="#951B81"/>
<path d="M23.8396 59.365L23.4832 59.2759L23.8396 59.365Z" fill="#951B81"/>
<path d="M42.3319 57.3599L41.9866 57.5158L42.3319 57.3599Z" fill="#951B81"/>
<path d="M26.1232 59.7438L25.6219 59.677L26.1232 59.7438Z" fill="#951B81"/>
<path d="M38.4775 58.7747L38.0096 58.9083L38.4775 58.7747Z" fill="#951B81"/>
<path d="M58.9083 37.9985L58.7412 38.6112L58.9083 37.9985Z" fill="#951B81"/>
<path d="M0.0891841 32.1945C0.0891841 32.0163 0.0891841 31.8381 0.0891841 31.6487C0.0557641 31.8381 0.0780441 32.0163 0.0891841 32.1945Z" fill="#951B81"/>
<path d="M57.8611 41.1289L57.694 41.5522L57.8611 41.1289Z" fill="#951B81"/>
<path d="M54.6974 47.022L54.3966 47.4453L54.6974 47.022Z" fill="#951B81"/>
<path d="M55.544 45.6741L55.299 46.0751L55.544 45.6741Z" fill="#951B81"/>
<path d="M0.512401 35.5366C0.512401 35.3249 0.445561 35.1133 0.401001 34.9016C0.445561 35.1133 0.478981 35.3249 0.512401 35.5366Z" fill="#951B81"/>
<path d="M0.256203 33.9102C0.256203 33.6986 0.200503 33.498 0.178223 33.2864C0.200503 33.498 0.233923 33.6986 0.256203 33.9102Z" fill="#951B81"/>
<path d="M56.3238 44.3818L56.179 44.6381L56.3238 44.3818Z" fill="#951B81"/>
<path d="M59.8218 33.2639C59.8218 33.4756 59.7661 33.6761 59.7438 33.8878C59.7661 33.6761 59.7995 33.4756 59.8218 33.2639Z" fill="#951B81"/>
<path d="M59.5989 34.8682C59.5989 35.0798 59.521 35.2915 59.4875 35.5031C59.521 35.2915 59.5655 35.0798 59.5989 34.8682Z" fill="#951B81"/>
<path d="M53.7839 48.2808L53.4497 48.6929L53.7839 48.2808Z" fill="#951B81"/>
<path d="M5.648 47.501L5.41406 47.178L5.648 47.501Z" fill="#951B81"/>
<path d="M59.9554 31.6377C59.9554 31.8271 59.9554 31.9942 59.9554 32.1724C59.922 31.9942 59.9443 31.8271 59.9554 31.6377Z" fill="#951B81"/>
<path d="M52.7925 49.4949L52.4583 49.8848L52.7925 49.4949Z" fill="#951B81"/>
<path d="M4.7456 46.1865L4.53394 45.8523L4.7456 46.1865Z" fill="#951B81"/>
<path d="M3.89903 44.7828L3.73193 44.4932L3.89903 44.7828Z" fill="#951B81"/>
<path d="M59.2981 36.45C59.2981 36.6505 59.1979 36.8621 59.1533 37.0738C59.1979 36.8621 59.2536 36.6505 59.2981 36.45Z" fill="#951B81"/>
<path d="M1.76005 40.104C1.76005 39.9481 1.65979 39.8033 1.61523 39.6584C1.65979 39.8478 1.71549 39.9926 1.76005 40.104Z" fill="#951B81"/>
<path d="M1.26997 38.6446C1.26997 38.4664 1.16971 38.277 1.11401 38.0876C1.16971 38.277 1.21427 38.4664 1.26997 38.6446Z" fill="#951B81"/>
<path d="M0.857711 37.1074C0.802011 36.9069 0.757451 36.7064 0.712891 36.5059C0.757451 36.7621 0.802011 36.9069 0.857711 37.1074Z" fill="#951B81"/>
<path d="M52.7924 49.4951L53.4497 48.693L53.7839 48.2808L54.3966 47.4453L54.6974 47.022C54.909 46.7212 55.0984 46.4205 55.2989 46.1197L55.544 45.7186C55.7668 45.3622 55.9785 45.0057 56.179 44.6046L56.3238 44.3484C56.58 43.8805 56.8251 43.4127 57.059 42.9336C57.2818 42.4658 57.4935 41.9979 57.694 41.5189L57.8611 41.0955C57.9948 40.7502 58.1285 40.416 58.251 40.0595L58.4404 39.5248L58.7412 38.5779L58.9083 37.9652C58.9974 37.6644 59.0754 37.3525 59.1534 37.0406C59.2313 36.7287 59.2536 36.6173 59.2982 36.4167C59.3427 36.2162 59.4319 35.7818 59.4876 35.4698C59.5433 35.1579 59.5655 35.0465 59.599 34.8349C59.6324 34.6232 59.6992 34.1776 59.7438 33.8545C59.7883 33.5315 59.7438 33.4424 59.8218 33.2307C59.8997 33.019 59.8886 32.5066 59.9109 32.1167C59.9109 31.9385 59.9109 31.7714 59.9109 31.582C59.9109 31.0473 59.9109 30.468 59.9109 29.9444C59.8922 24.8863 58.5954 19.9149 56.1409 15.4922C53.6865 11.0694 50.1539 7.33881 45.8716 4.6469C41.5892 1.955 36.6959 0.38914 31.6463 0.0948043C26.5967 -0.199531 21.5546 0.787206 16.9885 2.96334C16.13 3.38078 15.2934 3.84183 14.482 4.3447C10.0715 7.01293 6.42237 10.7718 3.88593 15.2594C1.34949 19.7469 0.0112199 24.8119 0 29.9667H0C0 30.5237 0 31.0807 0 31.6154C0 31.8048 0 31.983 0 32.1613C0 32.5289 0.0557 32.8965 0.0891199 33.2753C0.12254 33.654 0.0891199 33.6874 0.1671 33.8991C0.24508 34.1108 0.26736 34.5675 0.31192 34.8906C0.35648 35.2136 0.3899 35.3139 0.42332 35.5255L0.62384 36.4947C0.62384 36.6952 0.71296 36.8958 0.768659 37.0963C0.824359 37.2968 0.935759 37.7535 1.02488 38.0766C1.114 38.3997 1.12514 38.4554 1.18084 38.6336C1.29224 38.9901 1.40364 39.3466 1.52618 39.7476C1.52618 39.8924 1.62644 40.0372 1.671 40.1932C1.8381 40.6499 2.01634 41.1067 2.20572 41.5523V41.6525C2.41738 42.1538 2.64018 42.644 2.88526 43.1342V43.2121C3.10806 43.6577 3.33086 44.1033 3.57594 44.5378L3.74304 44.8274C3.94356 45.1839 4.15522 45.5552 4.37802 45.9414L4.58968 46.2756C4.81248 46.6098 5.02414 46.944 5.25808 47.2671L5.49202 47.5902C5.72596 47.9244 5.97104 48.2474 6.21612 48.5593L6.43892 48.8378C6.70628 49.1832 6.99592 49.5174 7.28555 49.8516C7.34126 49.8516 7.38581 49.9741 7.44151 50.0409C8.51743 51.2417 9.68306 52.3589 10.9283 53.3829V18.849H30.4456V28.5519H20.4196V55.6332H14.404C14.9276 55.9451 15.4512 56.2459 15.9859 56.5244L16.3981 56.7361C16.8214 56.9477 17.2558 57.1594 17.7014 57.3599L18.0913 57.5382C18.6483 57.7721 19.2053 58.006 19.7735 58.2066L20.0297 58.2957C20.5199 58.4628 21.01 58.6299 21.5225 58.7747L22.0238 58.9195C22.5028 59.0532 22.9929 59.1757 23.4831 59.276L23.8396 59.3651C24.43 59.4877 25.0316 59.5879 25.6443 59.677L26.1233 59.7439C26.5912 59.7439 27.0702 59.8553 27.5381 59.8887H28.1062C28.7189 59.8887 29.3316 59.9555 29.9443 59.9555H30.078C30.6907 59.9555 31.3034 59.9555 31.9161 59.8887H32.4731C32.9632 59.8887 33.4423 59.7996 33.9213 59.7327H34.378C34.9907 59.6436 35.6034 59.5434 36.205 59.4097L36.5392 59.3317C37.0405 59.2203 37.5418 59.0978 38.0319 58.9641L38.4998 58.8304C39.0457 58.6744 39.6138 58.4962 40.1151 58.3068H40.2488C40.8281 58.0952 41.3628 57.8612 41.9755 57.6161L42.3208 57.4602C42.7887 57.2485 43.2454 57.0257 43.7022 56.7918L44.0252 56.6247C44.5822 56.335 45.1392 56.0343 45.6517 55.7001H37.7089V48.2363H27.0145V55.5998H22.8481V30.869H49.1385V53.149C49.5284 52.8259 49.9183 52.4917 50.2525 52.1353L50.5087 51.8902C50.7984 51.6228 51.0769 51.3443 51.3554 51.0658L51.6784 50.7316L52.4137 49.9407L52.7924 49.4951ZM18.938 9.89242V8.47764H22.5585V11.3629H18.938V9.89242ZM26.0899 16.5764H15.4177V14.8609V13.201H26.0899V16.5764ZM49.4838 17.4119C49.344 18.7664 48.8543 20.0613 48.063 21.1695C47.2716 22.2776 46.2057 23.161 44.9698 23.7328C43.734 24.3047 42.3707 24.5454 41.0138 24.4313C39.6568 24.3173 38.3529 23.8523 37.2299 23.0822C37.1065 23.6081 37.043 24.1462 37.0405 24.6863C37.0414 25.444 37.1655 26.1965 37.4081 26.9143C37.457 27.033 37.4809 27.1604 37.4784 27.2887C37.476 27.417 37.4471 27.5434 37.3937 27.6601C37.3404 27.7768 37.2635 27.8812 37.1681 27.967C37.0726 28.0527 36.9605 28.1179 36.8388 28.1584C36.717 28.199 36.5883 28.2141 36.4604 28.2028C36.3326 28.1915 36.2085 28.1541 36.0958 28.0927C35.983 28.0314 35.8841 27.9476 35.8052 27.8465C35.7262 27.7453 35.6689 27.629 35.6368 27.5047C35.3329 26.5924 35.1787 25.6368 35.1801 24.6752C35.1622 23.6677 35.3205 22.6649 35.648 21.712C35.648 21.712 35.648 21.712 35.648 21.6451C35.915 20.9376 36.2908 20.276 36.762 19.6845C37.9156 18.2199 39.6014 17.2709 41.4519 17.0443C41.56 17.0333 41.6648 17.0007 41.7601 16.9485C41.8554 16.8963 41.9393 16.8256 42.0068 16.7404C42.0743 16.6553 42.1241 16.5575 42.1531 16.4527C42.1822 16.348 42.19 16.2386 42.176 16.1308C42.1509 15.9137 42.0405 15.7154 41.8692 15.5796C41.6979 15.4438 41.4797 15.3816 41.2625 15.4067C40.1302 15.5401 39.0354 15.8962 38.0412 16.4544C37.047 17.0127 36.1731 17.7622 35.4697 18.6596C35.1263 19.0924 34.8277 19.559 34.5785 20.0521C33.9881 18.8569 33.7139 17.5304 33.7822 16.1991C33.8504 14.8678 34.2588 13.5762 34.9683 12.4477C35.6778 11.3192 36.6648 10.3914 37.835 9.75292C39.0051 9.11444 40.3195 8.7866 41.6524 8.8007H49.4504V16.6655C49.5618 16.9106 49.5395 17.1668 49.5173 17.4231L49.4838 17.4119Z" fill="#951B81"/>
<path d="M37.9539 41.697H34.2332V45.4178H37.9539V41.697Z" fill="#951B81"/>
<path d="M30.5682 35.1802H26.8474V38.9009H30.5682V35.1802Z" fill="#951B81"/>
<path d="M30.5682 41.697H26.8474V45.4178H30.5682V41.697Z" fill="#951B81"/>
<path d="M37.9539 35.1802H34.2332V38.9009H37.9539V35.1802Z" fill="#951B81"/>
<path d="M45.2729 48.2585H41.5521V51.9793H45.2729V48.2585Z" fill="#951B81"/>
<path d="M45.2729 35.1802H41.5521V38.9009H45.2729V35.1802Z" fill="#951B81"/>
<path d="M45.2729 41.697H41.5521V45.4178H45.2729V41.697Z" fill="#951B81"/>
<path d="M41.6971 8.78946C40.3626 8.77439 39.0466 9.10207 37.875 9.74112C36.7034 10.3802 35.7154 11.3092 35.0055 12.4394C34.2957 13.5695 33.8878 14.8629 33.8209 16.1958C33.7539 17.5287 34.0302 18.8564 34.6232 20.052C34.8724 19.5589 35.171 19.0923 35.5144 18.6595C36.2177 17.7621 37.0916 17.0126 38.0858 16.4544C39.08 15.8961 40.1748 15.54 41.3072 15.4066C41.5243 15.3815 41.7425 15.4437 41.9138 15.5795C42.0851 15.7153 42.1955 15.9136 42.2206 16.1307C42.2346 16.2385 42.2268 16.3479 42.1978 16.4526C42.1687 16.5574 42.1189 16.6552 42.0514 16.7403C41.9839 16.8255 41.9001 16.8962 41.8048 16.9484C41.7094 17.0006 41.6046 17.0332 41.4965 17.0442C40.5732 17.1494 39.6797 17.4358 38.8673 17.8869C38.0549 18.3381 37.3394 18.9451 36.762 19.6732C36.2909 20.2648 35.915 20.9263 35.648 21.6339C35.648 21.6339 35.648 21.6339 35.648 21.7007C35.2991 22.6573 35.1218 23.668 35.1245 24.6862C35.1434 25.6553 35.3202 26.6148 35.648 27.5269C35.6801 27.6512 35.7374 27.7675 35.8164 27.8686C35.8953 27.9698 35.9943 28.0536 36.107 28.1149C36.2197 28.1762 36.3438 28.2137 36.4717 28.225C36.5995 28.2363 36.7282 28.2212 36.85 28.1806C36.9717 28.14 37.0838 28.0749 37.1793 27.9891C37.2747 27.9034 37.3516 27.7989 37.405 27.6823C37.4584 27.5656 37.4872 27.4392 37.4897 27.3109C37.4921 27.1826 37.4682 27.0552 37.4193 26.9365C37.1767 26.2187 37.0526 25.4662 37.0517 24.7085C37.0542 24.1684 37.1178 23.6302 37.2411 23.1044C38.3599 23.8918 39.6662 24.371 41.0287 24.4939C42.3913 24.6167 43.7623 24.379 45.0039 23.8044C46.2455 23.2299 47.3142 22.3388 48.1025 21.2206C48.8908 20.1025 49.3711 18.7966 49.4951 17.4341C49.4951 17.1779 49.4951 16.9217 49.4951 16.6543V8.77832L41.6971 8.78946Z" fill="white"/>
<path d="M15.4401 14.8608H15.429V16.5875H26.1011V13.2009H15.4401V14.8608Z" fill="white"/>
<path d="M15.429 14.8608H15.4401V13.2009H26.1011H15.429V14.8608Z" fill="white"/>
<path d="M22.5807 8.47754H18.9602V9.89232H18.9491V11.3628H22.5807V8.47754Z" fill="white"/>
<path d="M18.9602 8.47754L18.9491 9.89232H18.9602V8.47754Z" fill="white"/>
</g>
<defs>
<clipPath id="clip0">
<rect width="60" height="60" fill="white"/>
</clipPath>
</defs>
</svg>
