<svg width="60" height="60" viewBox="0 0 60 60" fill="none" xmlns="http://www.w3.org/2000/svg">
<g clip-path="url(#clip0)">
<path d="M30 60C35.9334 60 41.7336 58.2405 46.6671 54.9441C51.6006 51.6477 55.4458 46.9623 57.7164 41.4805C59.987 35.9987 60.5811 29.9667 59.4236 24.1473C58.266 18.3279 55.4088 12.9824 51.2132 8.78681C47.0176 4.59123 41.6721 1.73401 35.8527 0.576455C30.0333 -0.581102 24.0013 0.0129986 18.5195 2.28363C13.0377 4.55426 8.35235 8.39943 5.05591 13.3329C1.75947 18.2664 0 24.0666 0 30C0 37.9565 3.16071 45.5871 8.7868 51.2132C14.4129 56.8393 22.0435 60 30 60Z" fill="#009FE3"/>
<path d="M50.3193 33.9548H12.4433C11.6112 34.0441 10.8201 34.3619 10.1575 34.8731C9.49485 35.3843 8.98666 36.069 8.68917 36.8512C7.77569 39.4245 7.08501 45.1839 8.68917 47.2782H17.824C17.9908 47.8982 18.3573 48.4458 18.8668 48.8363C19.3764 49.2268 20.0004 49.4385 20.6424 49.4385C21.2843 49.4385 21.9084 49.2268 22.4179 48.8363C22.9274 48.4458 23.294 47.8982 23.4608 47.2782H38.5666C38.7374 47.8961 39.106 48.441 39.6161 48.8292C40.1262 49.2175 40.7496 49.4277 41.3906 49.4277C42.0317 49.4277 42.655 49.2175 43.1651 48.8292C43.6752 48.441 44.0439 47.8961 44.2146 47.2782H50.3193C50.7426 47.3089 51.1674 47.2458 51.5635 47.0934C51.9596 46.9411 52.3172 46.7032 52.6108 46.3968C52.9045 46.0904 53.1269 45.723 53.2622 45.3208C53.3976 44.9186 53.4426 44.4915 53.394 44.0699V36.996C53.4501 36.5805 53.409 36.1576 53.2739 35.7606C53.1387 35.3637 52.9131 35.0036 52.615 34.7087C52.3169 34.4138 51.9543 34.1922 51.556 34.0614C51.1576 33.9306 50.7342 33.8941 50.3193 33.9548ZM10.8169 42.1538C10.7441 42.4175 10.5915 42.6521 10.3801 42.8256C10.1687 42.9991 9.90882 43.103 9.63606 43.123H9.02337C9.01346 41.5887 9.16657 40.0576 9.48011 38.5556C10.026 36.3276 10.9729 35.8263 10.9729 35.8263V40.6611C10.9827 41.1632 10.9303 41.6646 10.8169 42.1538ZM14.482 45.1505H12.254V36.2385H14.482V45.1505ZM17.267 45.1505H15.039V36.2385H17.267V45.1505ZM20.609 47.7016C20.3688 47.7016 20.134 47.6303 19.9344 47.4969C19.7347 47.3635 19.579 47.1739 19.4871 46.952C19.3952 46.7301 19.3712 46.486 19.418 46.2504C19.4649 46.0149 19.5805 45.7985 19.7503 45.6287C19.9202 45.4589 20.1365 45.3432 20.3721 45.2964C20.6076 45.2495 20.8518 45.2736 21.0736 45.3655C21.2955 45.4574 21.4852 45.613 21.6186 45.8127C21.752 46.0124 21.8232 46.2471 21.8232 46.4873C21.8232 46.6486 21.7911 46.8084 21.7287 46.9572C21.6663 47.106 21.5749 47.2408 21.4597 47.3539C21.3446 47.4669 21.2081 47.5559 21.0582 47.6156C20.9083 47.6753 20.748 47.7045 20.5867 47.7016H20.609ZM27.9391 40.7279H18.4924V36.2719H27.9168L27.9391 40.7279ZM31.3925 45.1839H29.1645V36.2719H31.3925V45.1839ZM34.1775 45.1839H31.9495V36.2719H34.1775V45.1839ZM41.4185 47.735C41.1778 47.7372 40.942 47.6679 40.7408 47.5358C40.5397 47.4037 40.3823 47.2148 40.2887 46.9932C40.1951 46.7715 40.1695 46.527 40.2151 46.2907C40.2606 46.0545 40.3754 45.8371 40.5448 45.6661C40.7141 45.4952 40.9305 45.3784 41.1663 45.3307C41.4021 45.2829 41.6469 45.3063 41.8694 45.3979C42.0919 45.4894 42.2822 45.645 42.4161 45.845C42.5501 46.0449 42.6216 46.2801 42.6216 46.5207C42.6128 46.8389 42.4795 47.1409 42.2503 47.3617C42.0212 47.5826 41.7144 47.7046 41.3962 47.7016L41.4185 47.735ZM44.8384 40.7613H35.4029V36.3053H44.8162L44.8384 40.7613ZM48.2918 45.2173H46.0973V36.3053H48.2696L48.2918 45.2173ZM51.0768 45.2173H48.8823V36.3053H51.0546L51.0768 45.2173Z" fill="white"/>
<path d="M44.56 24.7754C43.2114 23.9969 42.0904 22.8785 41.3086 21.5319C40.5268 20.1852 40.1115 18.6571 40.104 17.1C40.112 15.4999 40.5507 13.9314 41.3739 12.5593C42.1972 11.1872 43.3747 10.062 44.7828 9.302L43.6577 7.7981C42.0144 8.71053 40.6429 10.0429 39.6832 11.659C38.7234 13.2751 38.21 15.117 38.1953 16.9965C38.1805 18.876 38.6651 20.7257 39.5993 22.3567C40.5336 23.9876 41.8841 25.3413 43.5128 26.2793L44.56 24.7754Z" fill="white"/>
<path d="M45.8967 22.9706C44.8242 22.3935 43.9297 21.5343 43.3099 20.4859C42.6901 19.4374 42.3686 18.2395 42.3801 17.0216C42.3915 15.8038 42.7356 14.6121 43.375 13.5755C44.0144 12.5389 44.9249 11.6967 46.0081 11.1399L44.8941 9.61377C43.5653 10.3467 42.456 11.4207 41.6805 12.7252C40.905 14.0296 40.4914 15.5172 40.4823 17.0347C40.4733 18.5522 40.869 20.0447 41.6288 21.3583C42.3887 22.6719 43.485 23.7592 44.805 24.5079L45.8967 22.9706Z" fill="white"/>
<path d="M46.2421 22.4917L47.3561 20.9433C46.5943 20.6085 45.948 20.0566 45.4981 19.3566C45.0482 18.6565 44.8146 17.8394 44.8265 17.0074C44.8384 16.1753 45.0952 15.3652 45.5649 14.6783C46.0347 13.9914 46.6964 13.4582 47.4675 13.1453L46.3535 11.5857C45.3587 12.0947 44.522 12.8661 43.9341 13.8165C43.3461 14.7668 43.0293 15.8598 43.0178 16.9772C43.0063 18.0946 43.3007 19.1939 43.869 20.1561C44.4373 21.1183 45.2579 21.9067 46.2421 22.436V22.4917Z" fill="white"/>
<path d="M17.1222 24.6306H21.6673V27.5938H17.1222V24.6306ZM17.1222 16.632H21.6673V19.5953H17.1222V16.632ZM22.7924 24.6306H27.2484V27.5938H22.7924V24.6306ZM22.7924 16.632H27.2484V19.5953H22.7924V16.632ZM28.3624 24.6306H33.264V27.5938H28.407L28.3624 24.6306ZM28.3624 16.632H33.264V19.5953H28.407L28.3624 16.632ZM15.2395 34.055H34.779V11.6079H15.2395V34.055Z" fill="white"/>
<path d="M51.4891 48.7374H8.56673C8.46286 48.7359 8.35971 48.7549 8.26319 48.7933C8.16666 48.8317 8.07865 48.8887 8.00416 48.9611C7.92968 49.0336 7.87019 49.1199 7.8291 49.2153C7.788 49.3108 7.7661 49.4133 7.76465 49.5172H52.3246C52.3232 49.4133 52.3013 49.3108 52.2602 49.2153C52.2191 49.1199 52.1596 49.0336 52.0851 48.9611C52.0106 48.8887 51.9226 48.8317 51.8261 48.7933C51.7295 48.7549 51.6264 48.7359 51.5225 48.7374" fill="white"/>
<path d="M49.8069 18.8154H48.225V35.3249H49.8069V18.8154Z" fill="white"/>
<path d="M49.2499 20.4086C48.6019 20.3976 47.9717 20.1952 47.4384 19.827C46.9051 19.4588 46.4926 18.9412 46.2527 18.3391C46.0128 17.7371 45.9563 17.0776 46.0902 16.4436C46.2242 15.8095 46.5426 15.2292 47.0054 14.7756C47.4683 14.322 48.0549 14.0154 48.6915 13.8943C49.3282 13.7732 49.9864 13.8431 50.5834 14.095C51.1805 14.347 51.6897 14.7699 52.0471 15.3105C52.4044 15.8511 52.594 16.4853 52.5919 17.1334C52.5744 18.0081 52.2146 18.8411 51.5897 19.4535C50.9648 20.0658 50.1248 20.4087 49.2499 20.4086Z" fill="white"/>
</g>
<defs>
<clipPath id="clip0">
<rect width="60" height="60" fill="white"/>
</clipPath>
</defs>
</svg>
