<svg width="60" height="60" viewBox="0 0 60 60" fill="none" xmlns="http://www.w3.org/2000/svg">
<g clip-path="url(#clip0)">
<path d="M30 60C46.5685 60 60 46.5685 60 30C60 13.4315 46.5685 0 30 0C13.4315 0 0 13.4315 0 30C0 46.5685 13.4315 60 30 60Z" fill="white"/>
<path d="M25.1765 41.0398H22.1241C21.798 41.0398 21.5337 41.3041 21.5337 41.6302V44.6826C21.5337 45.0087 21.798 45.273 22.1241 45.273H25.1765C25.5025 45.273 25.7669 45.0087 25.7669 44.6826V41.6302C25.7669 41.3041 25.5025 41.0398 25.1765 41.0398Z" fill="#F39200"/>
<path d="M35.7595 41.0398H32.7071C32.381 41.0398 32.1167 41.3041 32.1167 41.6302V44.6826C32.1167 45.0087 32.381 45.273 32.7071 45.273H35.7595C36.0856 45.273 36.3499 45.0087 36.3499 44.6826V41.6302C36.3499 41.3041 36.0856 41.0398 35.7595 41.0398Z" fill="#F39200"/>
<path d="M13.0561 47.902V38.4553C13.0675 38.2786 13.1185 38.1068 13.2053 37.9526C13.2921 37.7983 13.4124 37.6655 13.5574 37.5641L26.3238 29.6992C26.6023 29.5321 26.8251 29.6992 26.8251 29.9889V37.2744C26.8251 37.5975 27.0479 37.7312 27.3264 37.5641L40.0929 29.6992C40.3714 29.5321 40.5942 29.6992 40.5942 29.9889V37.2744C40.5942 37.5975 40.817 37.7312 41.0955 37.5641L53.8619 29.6992C54.1404 29.5321 54.3632 29.6992 54.3632 29.9889V47.5009C58.035 42.4048 60.0074 36.2811 60 30C60 22.0435 56.8393 14.4129 51.2132 8.7868C45.5871 3.16071 37.9565 0 30 0C22.0435 0 14.4129 3.16071 8.78682 8.7868C3.16073 14.4129 2.76569e-05 22.0435 2.76569e-05 30C-0.00861585 36.3521 2.00894 42.5413 5.7594 47.668L7.30786 29.6101L8.8229 11.9755C8.83928 11.8179 8.91302 11.6718 9.0301 11.565C9.14717 11.4581 9.29942 11.3981 9.45788 11.3962H14.638C14.7964 11.3981 14.9487 11.4581 15.0658 11.565C15.1828 11.6718 15.2566 11.8179 15.273 11.9755L15.9191 19.5173L16.3201 24.2183L17.0776 33.0412V33.3086L12.6216 36.0602C12.2176 36.3171 11.8838 36.6706 11.6504 37.0887C11.4171 37.5068 11.2914 37.9765 11.2848 38.4553V47.902C11.2826 48.1015 11.3088 48.3003 11.3628 48.4924H6.34982C9.15671 52.0833 12.746 54.9865 16.8444 56.9806C20.9428 58.9748 25.4422 60.0075 30 60C34.5587 60.0018 39.0577 58.9632 43.1542 56.9632C47.2507 54.9632 50.8368 52.0546 53.6391 48.459H13.6465C13.4956 48.4592 13.3502 48.4016 13.2404 48.298C13.1306 48.1944 13.0646 48.0527 13.0561 47.902Z" fill="#F39200"/>
<path d="M46.3535 41.0398H43.3011C42.975 41.0398 42.7107 41.3041 42.7107 41.6302V44.6826C42.7107 45.0087 42.975 45.273 43.3011 45.273H46.3535C46.6796 45.273 46.9439 45.0087 46.9439 44.6826V41.6302C46.9439 41.3041 46.6796 41.0398 46.3535 41.0398Z" fill="#F39200"/>
<path d="M11.296 47.902V38.4553C11.3038 37.9755 11.4311 37.5051 11.6665 37.0869C11.9019 36.6687 12.2378 36.3158 12.644 36.0602L17.1 33.3086V33.0412L16.3425 24.2184L15.9414 19.5173L15.2953 11.9755C15.2789 11.8179 15.2052 11.6718 15.0881 11.565C14.971 11.4582 14.8188 11.3981 14.6603 11.3962H9.48022C9.32175 11.3981 9.16951 11.4582 9.05243 11.565C8.93536 11.6718 8.86162 11.8179 8.84524 11.9755L7.3302 29.6101L5.78174 47.6681L6.3833 48.459H11.3963C11.3378 48.2787 11.3041 48.0913 11.296 47.902Z" fill="white"/>
<path d="M54.3632 29.9889C54.3632 29.6547 54.1404 29.5322 53.8619 29.6993L41.0955 37.5641C40.817 37.7312 40.5942 37.5641 40.5942 37.2745V29.9889C40.5942 29.6547 40.3714 29.5322 40.0929 29.6993L27.3265 37.5641C27.048 37.7312 26.8252 37.5641 26.8252 37.2745V29.9889C26.8252 29.6547 26.6024 29.5322 26.3239 29.6993L13.5575 37.5641C13.4124 37.6656 13.2921 37.7984 13.2053 37.9527C13.1186 38.1069 13.0676 38.2787 13.0562 38.4553V47.902C13.0562 48.0586 13.1184 48.2088 13.2291 48.3195C13.3398 48.4303 13.49 48.4925 13.6466 48.4925H53.6391C53.8842 48.1805 54.1293 47.8575 54.3632 47.5344V29.9889ZM25.7669 44.6937C25.7669 44.7713 25.7516 44.848 25.7219 44.9197C25.6923 44.9913 25.6488 45.0564 25.594 45.1112C25.5391 45.166 25.474 45.2095 25.4024 45.2392C25.3308 45.2689 25.254 45.2841 25.1765 45.2841H22.1241C21.9675 45.2841 21.8173 45.2219 21.7066 45.1112C21.5959 45.0005 21.5337 44.8503 21.5337 44.6937V41.6302C21.5337 41.4736 21.5959 41.3235 21.7066 41.2127C21.8173 41.102 21.9675 41.0398 22.1241 41.0398H25.1765C25.254 41.0398 25.3308 41.0551 25.4024 41.0847C25.474 41.1144 25.5391 41.1579 25.594 41.2127C25.6488 41.2676 25.6923 41.3326 25.7219 41.4043C25.7516 41.4759 25.7669 41.5527 25.7669 41.6302V44.6937ZM36.361 44.6937C36.361 44.8503 36.2988 45.0005 36.1881 45.1112C36.0774 45.2219 35.9272 45.2841 35.7706 45.2841H32.696C32.5394 45.2841 32.3892 45.2219 32.2785 45.1112C32.1677 45.0005 32.1055 44.8503 32.1055 44.6937V41.6302C32.1055 41.4736 32.1677 41.3235 32.2785 41.2127C32.3892 41.102 32.5394 41.0398 32.696 41.0398H35.7595C35.916 41.0398 36.0662 41.102 36.1769 41.2127C36.2877 41.3235 36.3499 41.4736 36.3499 41.6302L36.361 44.6937ZM46.944 44.6937C46.9455 44.7707 46.9316 44.8473 46.9032 44.9188C46.8747 44.9904 46.8323 45.0556 46.7783 45.1106C46.7244 45.1655 46.66 45.2092 46.589 45.239C46.518 45.2688 46.4417 45.2842 46.3647 45.2841H43.3012C43.2237 45.2841 43.1469 45.2689 43.0753 45.2392C43.0037 45.2095 42.9386 45.166 42.8837 45.1112C42.8289 45.0564 42.7854 44.9913 42.7558 44.9197C42.7261 44.848 42.7108 44.7713 42.7108 44.6937V41.6302C42.7108 41.5527 42.7261 41.4759 42.7558 41.4043C42.7854 41.3326 42.8289 41.2676 42.8837 41.2127C42.9386 41.1579 43.0037 41.1144 43.0753 41.0847C43.1469 41.0551 43.2237 41.0398 43.3012 41.0398H46.3647C46.4417 41.0398 46.518 41.0551 46.589 41.0849C46.66 41.1147 46.7244 41.1584 46.7783 41.2134C46.8323 41.2684 46.8747 41.3335 46.9032 41.4051C46.9316 41.4767 46.9455 41.5532 46.944 41.6302V44.6937Z" fill="white"/>
</g>
<defs>
<clipPath id="clip0">
<rect width="60" height="60" fill="white"/>
</clipPath>
</defs>
</svg>
