<svg width="60" height="60" viewBox="0 0 60 60" fill="none" xmlns="http://www.w3.org/2000/svg">
<g clip-path="url(#clip0)">
<path d="M30 60C46.5685 60 60 46.5685 60 30C60 13.4315 46.5685 0 30 0C13.4315 0 0 13.4315 0 30C0 46.5685 13.4315 60 30 60Z" fill="white"/>
<path d="M35.9488 0.590332L29.755 26.825H43.4683L24.7754 59.532C26.4999 59.8404 28.2482 59.9969 30 59.9999C37.9565 59.9999 45.5872 56.8392 51.2132 51.2131C56.8393 45.587 60 37.9564 60 29.9999C59.9992 23.0757 57.604 16.3648 53.2206 11.0048C48.8371 5.64479 42.7351 1.9654 35.9488 0.590332Z" fill="#95C11F"/>
<path d="M13.446 34.0772L35.091 0.4456C33.3989 0.149757 31.6844 0.000669568 29.9666 0C22.0159 0.00885708 14.3938 3.17347 8.77498 8.7986C3.15611 14.4237 -4.93339e-06 22.0493 0 30C0.000850449 36.9408 2.40833 43.6665 6.81221 49.0312C11.2161 54.3959 17.3439 58.0676 24.1515 59.4207L28.9751 34.1775L13.446 34.0772Z" fill="#95C11F"/>
<path d="M29.7549 26.8251L35.9487 0.590377L35.0909 0.445557L13.4459 34.0772L28.9751 34.1775L24.1515 59.4207L24.7753 59.5321L43.4682 26.8251H29.7549Z" fill="white"/>
</g>
<defs>
<clipPath id="clip0">
<rect width="60" height="60" fill="white"/>
</clipPath>
</defs>
</svg>
